# xmcd
#
# Track frame offsets:
#	150
#	18282
#	43451
#	68971
#	93037
#	103479
#	123776
#	142486
#	169036
#	182201
#	211083
#	230813
#	244098
#	260034
#
# Disc length: 3756 seconds
#
# Revision: 4
# Processed by: cddbd v1.5.1PL0 Copyright (c) Steve Scherf et al.
# Submitted via: EasyCDDAExtractor 8.2.1.1
#
DISCID=d40eaa0e
DTITLE=Led Zeppelin - Whole Lotta Blues: Songs of Led Zeppelin
DYEAR=1999
DGENRE=Blues
TTITLE0=Eric Gales - Custard Pie
TTITLE1=Matthew Tutor, Eric Gales, Derek Trucks- Custard Pie (Revisited)
TTITLE2=Alvin Youngblood Hart- Heartbreaker - Alvin Youngblood Hart
TTITLE3=Otis Rush and Eric Gales- I Can't Quit You Baby
TTITLE4=Magic Slim, Billy Branch, James Cotton- When The Levee Breaks (Pt. 1)
TTITLE5=Magic Slim and James Cotton- When The Levee Breaks (Pt. 2)
TTITLE6=Chris Thomas King- Hey, Hey (What Can I Do) - Chris Thomas King
TTITLE7=Clarence Gatemouth Brown- Rock N' Roll
TTITLE8=Joe Lewis Walker and James Cotton- You Need Love
TTITLE9=Otis Clay-'Since I've Been Loving You
TTITLE10=Carl Weathersby- Good Times, Bad Times - Carl Weathersby
TTITLE11=Robert Lockwood Jr- Bring It On Home (Pt 1) - Robert Lockwood Jr
TTITLE12=Robert Lockwood Jr- Bring It On Home (Pt 2) - Robert Lockwood Jr
TTITLE13=Eric Gales- ''Trampled Underfoot''
EXTD=
EXTT0=
EXTT1=
EXTT2=
EXTT3=
EXTT4=
EXTT5=
EXTT6=
EXTT7=
EXTT8=
EXTT9=
EXTT10=
EXTT11=
EXTT12=
EXTT13=
PLAYORDER=
